# xmcd CD database file
#
# Track frame offsets:
#	183
#	13308
#	27783
#	44058
#	58533
#	67608
#	81258
#	98208
#	112983
#	128133
#	144558
#	155508
#
# Disc length: 2216 seconds
#
# Revision: 0
# Processed by: cddbd v1.4PL0 Copyright (c) Steve Scherf et al.
# Submitted via: CDex 1.50
#
DISCID=9c08a60c
DTITLE=Everly Brothers - I GRANDI DEL ROCH
DYEAR=1900
DGENRE=Country
TTITLE0=SWEET MEMORIES
TTITLE1=THE BRAND NEW TENNESSEE WALTZ
TTITLE2=SOMEBODY NOBODY KNOWS
TTITLE3=BREAKDOWN
TTITLE4=NOT FADE AWAY
TTITLE5=MANDOLIN WIND
TTITLE6=THE AIR THAT I BREATHE
TTITLE7=LAY IT DOWN
TTITLE8=STORIES WE COULD TELL
TTITLE9=PARADISE
TTITLE10=WATCHING IT GO
TTITLE11=HUSBANDS AND WIVES
EXTD=
EXTT0=
EXTT1=
EXTT2=
EXTT3=
EXTT4=
EXTT5=
EXTT6=
EXTT7=
EXTT8=
EXTT9=
EXTT10=
EXTT11=
PLAYORDER=
